<?xml version="1.0" encoding="UTF-8" standalone="no"?>
<!DOCTYPE svg PUBLIC "-//W3C//DTD SVG 1.1//EN" "http://www.w3.org/Graphics/SVG/1.1/DTD/svg11.dtd">
<svg version="1.1" xmlns="http://www.w3.org/2000/svg" xmlns:xlink="http://www.w3.org/1999/xlink" preserveAspectRatio="xMidYMid meet" viewBox="0 0 640 640" width="64" height="64"><defs><path d="M636.06 390.48C620.06 374.48 492.06 246.49 476.06 230.49C470.77 225.37 462.32 225.52 457.21 230.82C452.22 235.98 452.22 244.17 457.21 249.34C466.36 258.49 512.11 304.24 594.46 386.59C437.78 386.59 350.73 386.59 333.32 386.59C164.04 386.4 26.86 249.22 26.67 79.93C26.67 72.57 20.7 66.6 13.33 66.6C5.97 66.6 0 72.57 0 79.93C0.21 263.94 149.32 413.05 333.32 413.26C350.73 413.26 437.78 413.26 594.46 413.26C512.12 495.59 466.38 541.33 457.24 550.48C451.94 555.59 451.79 564.03 456.91 569.33C462.03 574.63 470.47 574.77 475.76 569.66C475.87 569.55 475.98 569.44 476.09 569.33C492.09 553.33 620.08 425.33 636.08 409.34C639.9 405.53 641.05 399.79 638.99 394.8C638.99 394.8 638.98 394.81 638.96 394.83C637.85 392.76 636.89 391.31 636.06 390.48Z" id="e74OWeUaaY"></path><path d="M333.32 413.26C149.32 413.05 0.21 263.94 0 79.93C0 72.57 5.97 66.6 13.33 66.6C20.7 66.6 26.67 72.57 26.67 79.93C26.86 249.22 164.04 386.4 333.32 386.59C362.65 386.59 597.31 386.59 626.64 386.59C634.01 386.59 639.98 392.56 639.98 399.92C639.98 407.29 634.01 413.26 626.64 413.26C567.98 413.26 362.65 413.26 333.32 413.26Z" id="aKgZCnIg"></path><path d="M453.29 559.94C453.28 556.39 454.69 552.98 457.21 550.48C467.25 540.44 517.44 490.25 607.79 399.92C517.44 309.59 467.25 259.4 457.21 249.37C452.09 244.07 452.24 235.63 457.54 230.51C462.7 225.52 470.89 225.52 476.06 230.51C492.06 246.51 620.06 374.51 636.06 390.51C641.26 395.71 641.26 404.15 636.06 409.36C620.06 425.36 492.06 553.36 476.06 569.36C473.56 571.85 470.18 573.25 466.65 573.25C459.28 573.26 453.3 567.3 453.29 559.94Z" id="c1sJfatK9I"></path></defs><g><g><g></g><g><g><filter id="shadow11391073" x="-9" y="57.6" width="658.98" height="365.65" filterUnits="userSpaceOnUse" primitiveUnits="userSpaceOnUse"><feFlood></feFlood><feComposite in2="SourceAlpha" operator="in"></feComposite><feGaussianBlur stdDeviation="1"></feGaussianBlur><feOffset dx="1" dy="1" result="afterOffset"></feOffset><feFlood flood-color="#000000" flood-opacity="0.5"></feFlood><feComposite in2="afterOffset" operator="in"></feComposite><feMorphology operator="dilate" radius="1"></feMorphology><feComposite in2="SourceAlpha" operator="out"></feComposite></filter><path d="M333.32 413.26C149.32 413.05 0.21 263.94 0 79.93C0 72.57 5.97 66.6 13.33 66.6C20.7 66.6 26.67 72.57 26.67 79.93C26.86 249.22 164.04 386.4 333.32 386.59C362.65 386.59 597.31 386.59 626.64 386.59C634.01 386.59 639.98 392.56 639.98 399.92C639.98 407.29 634.01 413.26 626.64 413.26C567.98 413.26 362.65 413.26 333.32 413.26Z" id="a2Bw9C38LA" fill="white" fill-opacity="1" filter="url(#shadow11391073)"></path></g><use xlink:href="#aKgZCnIg" opacity="1" fill="#d3d3d3" fill-opacity="1"></use></g><g><g><filter id="shadow11059972" x="444.29" y="217.77" width="205.67" height="365.48" filterUnits="userSpaceOnUse" primitiveUnits="userSpaceOnUse"><feFlood></feFlood><feComposite in2="SourceAlpha" operator="in"></feComposite><feGaussianBlur stdDeviation="1"></feGaussianBlur><feOffset dx="1" dy="1" result="afterOffset"></feOffset><feFlood flood-color="#000000" flood-opacity="0.5"></feFlood><feComposite in2="afterOffset" operator="in"></feComposite><feMorphology operator="dilate" radius="1"></feMorphology><feComposite in2="SourceAlpha" operator="out"></feComposite></filter><path d="M453.29 559.94C453.28 556.39 454.69 552.98 457.21 550.48C467.25 540.44 517.44 490.25 607.79 399.92C517.44 309.59 467.25 259.4 457.21 249.37C452.09 244.07 452.24 235.63 457.54 230.51C462.7 225.52 470.89 225.52 476.06 230.51C492.06 246.51 620.06 374.51 636.06 390.51C641.26 395.71 641.26 404.15 636.06 409.36C620.06 425.36 492.06 553.36 476.06 569.36C473.56 571.85 470.18 573.25 466.65 573.25C459.28 573.26 453.3 567.3 453.29 559.94Z" id="bb17AsySX" fill="white" fill-opacity="1" filter="url(#shadow11059972)"></path></g><use xlink:href="#c1sJfatK9I" opacity="1" fill="#d3d3d3" fill-opacity="1"></use></g></g></g></svg>